<?xml version="1.0" encoding="UTF-8"?>
<svg xmlns="http://www.w3.org/2000/svg" xmlns:xlink="http://www.w3.org/1999/xlink" width="511pt" height="207pt" viewBox="0 0 511 207" version="1.1">
<g id="surface1">
<path style=" stroke:none;fill-rule:nonzero;fill:rgb(13.72549%,12.156863%,12.54902%);fill-opacity:1;" d="M 498.175781 17.890625 C 494.648438 26.167969 501.496094 39.289062 491.632812 41.863281 L 185.148438 40.832031 L 152.632812 41.507812 L 148.03125 48.554688 L 109.671875 194.265625 L 104.359375 196.683594 L 52.585938 195.773438 L 47.726562 185.664062 C 33.3125 126.253906 17.101562 67.835938 3.230469 8.496094 C 16.496094 6.757812 31.949219 5.75 45.417969 8.589844 C 59.457031 51.988281 65.839844 98.175781 78.066406 143.109375 L 79.671875 144.414062 L 83.457031 140.128906 L 116.46875 10.519531 L 120.164062 7.417969 L 468.242188 7.984375 C 478.210938 11.097656 499.035156 0.867188 498.175781 17.890625 "/>
<path style=" stroke:none;fill-rule:nonzero;fill:rgb(13.72549%,12.156863%,12.54902%);fill-opacity:1;" d="M 498.65625 73.859375 C 499.519531 83.613281 490.253906 92.554688 483.488281 98.246094 C 470.871094 92.636719 455.300781 81.066406 439.789062 89.433594 C 434.941406 93.074219 431.535156 99.613281 435.074219 105.003906 C 456.550781 121.089844 494.875 112.324219 502.953125 144.957031 C 506.945312 159 503.75 176.960938 492.636719 186.910156 C 474.734375 203.632812 448.777344 207.167969 423.753906 199.960938 C 412.773438 195.054688 400.503906 191.757812 390.996094 182.949219 C 394.648438 172.964844 401.078125 164.425781 407.984375 156.972656 C 421.9375 160.429688 434.097656 171.761719 451.335938 169.738281 C 457.039062 169.648438 464.207031 165.699219 467.023438 159.597656 C 469.058594 135.289062 438.050781 144.683594 423.789062 137.761719 C 409.277344 134.28125 397.816406 121.886719 394.957031 107.992188 C 392.148438 93.460938 396.167969 79.53125 407.242188 70.1875 C 433.183594 52.425781 473.984375 55.230469 498.65625 73.859375 "/>
<path style=" stroke:none;fill-rule:nonzero;fill:rgb(13.72549%,12.156863%,12.54902%);fill-opacity:1;" d="M 380.1875 66.800781 C 381.222656 108.542969 381.046875 151.890625 379.863281 193.40625 C 366.429688 196.875 351.308594 193.871094 337.078125 193.84375 C 325.585938 174.671875 318.550781 156.335938 305.371094 137.015625 C 303.703125 136.304688 302.949219 138.53125 301.78125 138.96875 L 300.695312 192.570312 C 291.726562 197.488281 279.042969 193.019531 268.636719 194.992188 L 266.351562 187.925781 C 266.773438 148.621094 265.230469 105.695312 268.40625 67.179688 C 280.03125 64.734375 293.148438 64.671875 306.191406 65.183594 L 309.972656 67.785156 L 339.203125 120.40625 L 343.265625 119.625 C 342.257812 104.117188 345.628906 84.476562 344.777344 67.25 C 354.824219 62.957031 369.460938 65.304688 380.1875 66.800781 "/>
<path style=" stroke:none;fill-rule:nonzero;fill:rgb(13.72549%,12.156863%,12.54902%);fill-opacity:1;" d="M 201.800781 135.175781 C 200.914062 124.824219 196.65625 114.828125 192.328125 105.863281 C 186.464844 113.933594 186.675781 125.359375 184.144531 134.84375 C 188.933594 139.25 196.507812 137.078125 201.800781 135.175781 M 232.796875 98.410156 L 256.238281 193.40625 C 246.222656 197.09375 233.332031 194.316406 221.9375 194.484375 C 216.316406 186.601562 219.855469 171.507812 206.90625 169.84375 C 194.867188 170.578125 179.265625 165.863281 171.105469 175.417969 L 165.488281 194.886719 C 154.558594 196.289062 141.414062 196.375 131.394531 193.753906 C 142.378906 150.75 155.039062 108.472656 168.226562 66.199219 C 184.488281 63 205.464844 64.199219 222.320312 66.179688 Z M 232.796875 98.410156 "/>
<path style=" stroke:none;fill-rule:nonzero;fill:rgb(13.72549%,12.156863%,12.54902%);fill-opacity:1;" d="M 503.996094 51.917969 C 503.734375 51.796875 503.363281 51.734375 502.871094 51.734375 L 502.417969 51.734375 L 502.417969 53.855469 L 503.152344 53.855469 C 503.609375 53.867188 503.953125 53.769531 504.199219 53.613281 C 504.453125 53.410156 504.578125 53.113281 504.578125 52.71875 C 504.585938 52.320312 504.375 52.042969 503.996094 51.917969 M 500.5625 57.6875 L 500.5625 50.523438 C 501.019531 50.507812 501.671875 50.523438 502.566406 50.523438 C 503.453125 50.535156 503.953125 50.523438 504.03125 50.523438 C 504.621094 50.5625 505.09375 50.683594 505.460938 50.910156 C 506.097656 51.242188 506.410156 51.824219 506.410156 52.601562 C 506.410156 53.214844 506.253906 53.652344 505.917969 53.898438 C 505.585938 54.171875 505.175781 54.332031 504.683594 54.367188 C 505.140625 54.46875 505.472656 54.621094 505.707031 54.800781 C 506.128906 55.160156 506.367188 55.707031 506.359375 56.433594 L 506.367188 57.0625 C 506.359375 57.132812 506.386719 57.203125 506.359375 57.285156 C 506.359375 57.34375 506.386719 57.425781 506.386719 57.484375 L 506.4375 57.714844 L 504.664062 57.679688 C 504.609375 57.476562 504.566406 57.132812 504.550781 56.6875 C 504.542969 56.273438 504.503906 55.988281 504.425781 55.820312 C 504.328125 55.558594 504.144531 55.375 503.902344 55.277344 C 503.75 55.234375 503.53125 55.1875 503.234375 55.171875 L 502.828125 55.171875 L 502.417969 55.160156 L 502.417969 57.695312 Z M 499.648438 50.375 C 498.613281 51.402344 498.097656 52.648438 498.097656 54.117188 C 498.097656 55.582031 498.625 56.863281 499.675781 57.921875 C 500.722656 58.964844 501.960938 59.476562 503.417969 59.457031 C 504.890625 59.484375 506.164062 58.933594 507.21875 57.890625 C 508.230469 56.84375 508.757812 55.566406 508.757812 54.117188 C 508.757812 52.648438 508.230469 51.402344 507.203125 50.382812 C 506.128906 49.289062 504.890625 48.753906 503.417969 48.753906 C 501.960938 48.753906 500.695312 49.289062 499.648438 50.375 M 507.957031 58.75 C 506.683594 59.964844 505.175781 60.589844 503.417969 60.578125 C 501.589844 60.554688 500.054688 59.941406 498.800781 58.703125 C 497.578125 57.457031 496.972656 55.898438 496.945312 54.085938 C 496.945312 52.199219 497.628906 50.621094 498.976562 49.378906 C 500.246094 48.183594 501.714844 47.613281 503.433594 47.589844 C 505.207031 47.589844 506.761719 48.226562 507.984375 49.484375 C 509.265625 50.78125 509.890625 52.296875 509.890625 54.085938 C 509.898438 55.933594 509.265625 57.503906 507.957031 58.75 "/>
</g>
</svg>
